<mxfile host="app.diagrams.net" agent="Mozilla/5.0 (X11; Linux x86_64) AppleWebKit/537.36 (KHTML, like Gecko) Chrome/134.0.0.0 Safari/537.36" version="26.2.14" pages="3">
  <diagram name="Página-1" id="X3cSam3sfROoEvpls6gJ">
    <mxGraphModel dx="986" dy="605" grid="1" gridSize="10" guides="1" tooltips="1" connect="1" arrows="1" fold="1" page="1" pageScale="1" pageWidth="827" pageHeight="1169" math="0" shadow="0">
      <root>
        <mxCell id="0" />
        <mxCell id="1" parent="0" />
        <mxCell id="ME0xJmBBbTVL4RvqsQJb-1" value="" style="outlineConnect=0;dashed=0;verticalLabelPosition=bottom;verticalAlign=top;align=center;html=1;shape=mxgraph.aws3.lambda_function;fillColor=#F58534;gradientColor=none;" vertex="1" parent="1">
          <mxGeometry x="400" y="123" width="69" height="72" as="geometry" />
        </mxCell>
        <mxCell id="ME0xJmBBbTVL4RvqsQJb-4" value="" style="outlineConnect=0;dashed=0;verticalLabelPosition=bottom;verticalAlign=top;align=center;html=1;shape=mxgraph.aws3.lambda_function;fillColor=#F58534;gradientColor=none;" vertex="1" parent="1">
          <mxGeometry x="400" y="230" width="69" height="72" as="geometry" />
        </mxCell>
        <mxCell id="ME0xJmBBbTVL4RvqsQJb-18" style="edgeStyle=orthogonalEdgeStyle;rounded=0;orthogonalLoop=1;jettySize=auto;html=1;" edge="1" parent="1" source="ME0xJmBBbTVL4RvqsQJb-5" target="ME0xJmBBbTVL4RvqsQJb-1">
          <mxGeometry relative="1" as="geometry" />
        </mxCell>
        <mxCell id="OS58FIXWI-lF7sV-hfEq-1" style="edgeStyle=orthogonalEdgeStyle;rounded=0;orthogonalLoop=1;jettySize=auto;html=1;entryX=0;entryY=0.5;entryDx=0;entryDy=0;entryPerimeter=0;" edge="1" parent="1" source="ME0xJmBBbTVL4RvqsQJb-5" target="OS58FIXWI-lF7sV-hfEq-2">
          <mxGeometry relative="1" as="geometry">
            <mxPoint x="270" y="450" as="targetPoint" />
            <Array as="points">
              <mxPoint x="280" y="159" />
              <mxPoint x="280" y="376" />
            </Array>
          </mxGeometry>
        </mxCell>
        <mxCell id="ME0xJmBBbTVL4RvqsQJb-5" value="" style="sketch=0;points=[[0,0,0],[0.25,0,0],[0.5,0,0],[0.75,0,0],[1,0,0],[0,1,0],[0.25,1,0],[0.5,1,0],[0.75,1,0],[1,1,0],[0,0.25,0],[0,0.5,0],[0,0.75,0],[1,0.25,0],[1,0.5,0],[1,0.75,0]];outlineConnect=0;fontColor=#232F3E;fillColor=#8C4FFF;strokeColor=#ffffff;dashed=0;verticalLabelPosition=bottom;verticalAlign=top;align=center;html=1;fontSize=12;fontStyle=0;aspect=fixed;shape=mxgraph.aws4.resourceIcon;resIcon=mxgraph.aws4.api_gateway;" vertex="1" parent="1">
          <mxGeometry x="170" y="120" width="78" height="78" as="geometry" />
        </mxCell>
        <mxCell id="ME0xJmBBbTVL4RvqsQJb-8" value="POST register" style="text;html=1;align=center;verticalAlign=middle;whiteSpace=wrap;rounded=0;" vertex="1" parent="1">
          <mxGeometry x="320" y="130" width="80" height="30" as="geometry" />
        </mxCell>
        <mxCell id="ME0xJmBBbTVL4RvqsQJb-9" value="POST login" style="text;html=1;align=center;verticalAlign=middle;whiteSpace=wrap;rounded=0;" vertex="1" parent="1">
          <mxGeometry x="310" y="230" width="80" height="30" as="geometry" />
        </mxCell>
        <mxCell id="ME0xJmBBbTVL4RvqsQJb-10" value="Service-user" style="text;html=1;align=center;verticalAlign=middle;whiteSpace=wrap;rounded=0;" vertex="1" parent="1">
          <mxGeometry x="171" y="80" width="60" height="30" as="geometry" />
        </mxCell>
        <mxCell id="ME0xJmBBbTVL4RvqsQJb-19" style="edgeStyle=orthogonalEdgeStyle;rounded=0;orthogonalLoop=1;jettySize=auto;html=1;entryX=0;entryY=0.5;entryDx=0;entryDy=0;entryPerimeter=0;" edge="1" parent="1" source="ME0xJmBBbTVL4RvqsQJb-5" target="ME0xJmBBbTVL4RvqsQJb-4">
          <mxGeometry relative="1" as="geometry">
            <Array as="points">
              <mxPoint x="280" y="159" />
              <mxPoint x="280" y="266" />
            </Array>
          </mxGeometry>
        </mxCell>
        <mxCell id="OS58FIXWI-lF7sV-hfEq-2" value="" style="outlineConnect=0;dashed=0;verticalLabelPosition=bottom;verticalAlign=top;align=center;html=1;shape=mxgraph.aws3.lambda_function;fillColor=#F58534;gradientColor=none;" vertex="1" parent="1">
          <mxGeometry x="400" y="340" width="69" height="72" as="geometry" />
        </mxCell>
        <mxCell id="OS58FIXWI-lF7sV-hfEq-3" value="GET me" style="text;html=1;align=center;verticalAlign=middle;whiteSpace=wrap;rounded=0;" vertex="1" parent="1">
          <mxGeometry x="310" y="340" width="80" height="30" as="geometry" />
        </mxCell>
        <mxCell id="-KORpwdrddMUUFX8pIL2-1" value="" style="outlineConnect=0;dashed=0;verticalLabelPosition=bottom;verticalAlign=top;align=center;html=1;shape=mxgraph.aws3.dynamo_db;fillColor=#2E73B8;gradientColor=none;" vertex="1" parent="1">
          <mxGeometry x="600" y="210" width="72" height="81" as="geometry" />
        </mxCell>
        <mxCell id="-KORpwdrddMUUFX8pIL2-2" style="edgeStyle=orthogonalEdgeStyle;rounded=0;orthogonalLoop=1;jettySize=auto;html=1;entryX=0;entryY=0.5;entryDx=0;entryDy=0;entryPerimeter=0;" edge="1" parent="1" source="ME0xJmBBbTVL4RvqsQJb-1" target="-KORpwdrddMUUFX8pIL2-1">
          <mxGeometry relative="1" as="geometry" />
        </mxCell>
        <mxCell id="-KORpwdrddMUUFX8pIL2-3" style="edgeStyle=orthogonalEdgeStyle;rounded=0;orthogonalLoop=1;jettySize=auto;html=1;entryX=0;entryY=0.5;entryDx=0;entryDy=0;entryPerimeter=0;" edge="1" parent="1" source="ME0xJmBBbTVL4RvqsQJb-4" target="-KORpwdrddMUUFX8pIL2-1">
          <mxGeometry relative="1" as="geometry" />
        </mxCell>
        <mxCell id="-KORpwdrddMUUFX8pIL2-4" style="edgeStyle=orthogonalEdgeStyle;rounded=0;orthogonalLoop=1;jettySize=auto;html=1;entryX=0;entryY=0.5;entryDx=0;entryDy=0;entryPerimeter=0;" edge="1" parent="1" source="OS58FIXWI-lF7sV-hfEq-2" target="-KORpwdrddMUUFX8pIL2-1">
          <mxGeometry relative="1" as="geometry" />
        </mxCell>
      </root>
    </mxGraphModel>
  </diagram>
  <diagram id="RUNjVPNvZpEkSzc88XpA" name="Página-2">
    <mxGraphModel dx="986" dy="605" grid="1" gridSize="10" guides="1" tooltips="1" connect="1" arrows="1" fold="1" page="1" pageScale="1" pageWidth="827" pageHeight="1169" math="0" shadow="0">
      <root>
        <mxCell id="0" />
        <mxCell id="1" parent="0" />
        <mxCell id="NlSF1PBAgpMjXepRAg2B-1" style="edgeStyle=orthogonalEdgeStyle;rounded=0;orthogonalLoop=1;jettySize=auto;html=1;entryX=0;entryY=0.5;entryDx=0;entryDy=0;entryPerimeter=0;" edge="1" parent="1" source="3uQSxaPX6GWDtASW0PdR-1" target="NlSF1PBAgpMjXepRAg2B-3">
          <mxGeometry relative="1" as="geometry">
            <mxPoint x="620" y="106" as="targetPoint" />
          </mxGeometry>
        </mxCell>
        <mxCell id="3uQSxaPX6GWDtASW0PdR-1" value="" style="outlineConnect=0;dashed=0;verticalLabelPosition=bottom;verticalAlign=top;align=center;html=1;shape=mxgraph.aws3.lambda_function;fillColor=#F58534;gradientColor=none;" vertex="1" parent="1">
          <mxGeometry x="430" y="70" width="69" height="72" as="geometry" />
        </mxCell>
        <mxCell id="3uQSxaPX6GWDtASW0PdR-2" value="POST rooms/create" style="text;html=1;align=center;verticalAlign=middle;whiteSpace=wrap;rounded=0;" vertex="1" parent="1">
          <mxGeometry x="330" y="70" width="60" height="30" as="geometry" />
        </mxCell>
        <mxCell id="NlSF1PBAgpMjXepRAg2B-2" style="edgeStyle=orthogonalEdgeStyle;rounded=0;orthogonalLoop=1;jettySize=auto;html=1;entryX=0;entryY=0.5;entryDx=0;entryDy=0;entryPerimeter=0;" edge="1" parent="1" source="3uQSxaPX6GWDtASW0PdR-3" target="NlSF1PBAgpMjXepRAg2B-3">
          <mxGeometry relative="1" as="geometry">
            <mxPoint x="610" y="250" as="targetPoint" />
          </mxGeometry>
        </mxCell>
        <mxCell id="3uQSxaPX6GWDtASW0PdR-3" value="" style="outlineConnect=0;dashed=0;verticalLabelPosition=bottom;verticalAlign=top;align=center;html=1;shape=mxgraph.aws3.lambda_function;fillColor=#F58534;gradientColor=none;" vertex="1" parent="1">
          <mxGeometry x="430" y="180" width="69" height="72" as="geometry" />
        </mxCell>
        <mxCell id="3uQSxaPX6GWDtASW0PdR-5" value="&lt;div&gt;GET&lt;/div&gt;&amp;nbsp;rooms/{roomID}" style="text;html=1;align=center;verticalAlign=middle;whiteSpace=wrap;rounded=0;" vertex="1" parent="1">
          <mxGeometry x="330" y="180" width="60" height="30" as="geometry" />
        </mxCell>
        <mxCell id="3uQSxaPX6GWDtASW0PdR-7" value="" style="outlineConnect=0;dashed=0;verticalLabelPosition=bottom;verticalAlign=top;align=center;html=1;shape=mxgraph.aws3.lambda_function;fillColor=#F58534;gradientColor=none;" vertex="1" parent="1">
          <mxGeometry x="430" y="330" width="69" height="72" as="geometry" />
        </mxCell>
        <mxCell id="3uQSxaPX6GWDtASW0PdR-8" value="&lt;div&gt;GET&lt;/div&gt;&amp;nbsp;rooms?page=int&amp;amp;zise=int" style="text;html=1;align=center;verticalAlign=middle;whiteSpace=wrap;rounded=0;" vertex="1" parent="1">
          <mxGeometry x="340" y="320" width="60" height="30" as="geometry" />
        </mxCell>
        <mxCell id="ljSeeSp-KRCPGm2oSPme-2" style="edgeStyle=orthogonalEdgeStyle;rounded=0;orthogonalLoop=1;jettySize=auto;html=1;" edge="1" parent="1" source="ljSeeSp-KRCPGm2oSPme-1" target="3uQSxaPX6GWDtASW0PdR-1">
          <mxGeometry relative="1" as="geometry">
            <Array as="points">
              <mxPoint x="280" y="159" />
              <mxPoint x="280" y="106" />
            </Array>
          </mxGeometry>
        </mxCell>
        <mxCell id="ljSeeSp-KRCPGm2oSPme-3" style="edgeStyle=orthogonalEdgeStyle;rounded=0;orthogonalLoop=1;jettySize=auto;html=1;" edge="1" parent="1" source="ljSeeSp-KRCPGm2oSPme-1" target="3uQSxaPX6GWDtASW0PdR-3">
          <mxGeometry relative="1" as="geometry">
            <Array as="points">
              <mxPoint x="280" y="159" />
              <mxPoint x="280" y="216" />
            </Array>
          </mxGeometry>
        </mxCell>
        <mxCell id="ljSeeSp-KRCPGm2oSPme-1" value="" style="sketch=0;points=[[0,0,0],[0.25,0,0],[0.5,0,0],[0.75,0,0],[1,0,0],[0,1,0],[0.25,1,0],[0.5,1,0],[0.75,1,0],[1,1,0],[0,0.25,0],[0,0.5,0],[0,0.75,0],[1,0.25,0],[1,0.5,0],[1,0.75,0]];outlineConnect=0;fontColor=#232F3E;fillColor=#8C4FFF;strokeColor=#ffffff;dashed=0;verticalLabelPosition=bottom;verticalAlign=top;align=center;html=1;fontSize=12;fontStyle=0;aspect=fixed;shape=mxgraph.aws4.resourceIcon;resIcon=mxgraph.aws4.api_gateway;" vertex="1" parent="1">
          <mxGeometry x="170" y="120" width="78" height="78" as="geometry" />
        </mxCell>
        <mxCell id="ljSeeSp-KRCPGm2oSPme-4" style="edgeStyle=orthogonalEdgeStyle;rounded=0;orthogonalLoop=1;jettySize=auto;html=1;entryX=0;entryY=0.5;entryDx=0;entryDy=0;entryPerimeter=0;" edge="1" parent="1" source="ljSeeSp-KRCPGm2oSPme-1" target="3uQSxaPX6GWDtASW0PdR-7">
          <mxGeometry relative="1" as="geometry">
            <Array as="points">
              <mxPoint x="280" y="159" />
              <mxPoint x="280" y="366" />
            </Array>
          </mxGeometry>
        </mxCell>
        <mxCell id="NlSF1PBAgpMjXepRAg2B-3" value="" style="outlineConnect=0;dashed=0;verticalLabelPosition=bottom;verticalAlign=top;align=center;html=1;shape=mxgraph.aws3.dynamo_db;fillColor=#2E73B8;gradientColor=none;" vertex="1" parent="1">
          <mxGeometry x="660" y="175.5" width="72" height="81" as="geometry" />
        </mxCell>
        <mxCell id="NlSF1PBAgpMjXepRAg2B-4" style="edgeStyle=orthogonalEdgeStyle;rounded=0;orthogonalLoop=1;jettySize=auto;html=1;entryX=0;entryY=0.5;entryDx=0;entryDy=0;entryPerimeter=0;" edge="1" parent="1" source="3uQSxaPX6GWDtASW0PdR-7" target="NlSF1PBAgpMjXepRAg2B-3">
          <mxGeometry relative="1" as="geometry" />
        </mxCell>
        <mxCell id="NlSF1PBAgpMjXepRAg2B-5" value="BD de ROMS" style="text;html=1;align=center;verticalAlign=middle;whiteSpace=wrap;rounded=0;" vertex="1" parent="1">
          <mxGeometry x="666" y="140" width="60" height="30" as="geometry" />
        </mxCell>
      </root>
    </mxGraphModel>
  </diagram>
  <diagram id="VAs7dwbdOUR2VQMTaApD" name="Página-3">
    <mxGraphModel grid="1" page="1" gridSize="10" guides="1" tooltips="1" connect="1" arrows="1" fold="1" pageScale="1" pageWidth="827" pageHeight="1169" math="0" shadow="0">
      <root>
        <mxCell id="0" />
        <mxCell id="1" parent="0" />
      </root>
    </mxGraphModel>
  </diagram>
</mxfile>
